  0
SECTION
  2
HEADER
  9
$ACADVER
  1
AC1015
  9
$ACADMAINTVER
 70
     6
  9
$DWGCODEPAGE
  3
ANSI_1252
  9
$INSBASE
 10
0.0
 20
0.0
 30
0.0
  9
$EXTMIN
 10
-11.496262054
 20
-11.5007162046
 30
0.0
  9
$EXTMAX
 10
11.4967320305
 20
11.499044245
 30
0.0
  9
$LIMMIN
 10
0.0
 20
0.0
  9
$LIMMAX
 10
420.0
 20
297.0
  9
$ORTHOMODE
 70
     0
  9
$REGENMODE
 70
     1
  9
$FILLMODE
 70
     1
  9
$QTEXTMODE
 70
     0
  9
$MIRRTEXT
 70
     1
  9
$LTSCALE
 40
1.0
  9
$ATTMODE
 70
     1
  9
$TEXTSIZE
 40
3.5
  9
$TRACEWID
 40
1.0
  9
$TEXTSTYLE
  7
Standard
  9
$CLAYER
  8
0
  9
$CELTYPE
  6
ByLayer
  9
$CECOLOR
 62
   256
  9
$CELTSCALE
 40
1.0
  9
$DISPSILH
 70
     0
  9
$DIMSCALE
 40
1.0
  9
$DIMASZ
 40
3.302
  9
$DIMEXO
 40
1.0
  9
$DIMDLI
 40
3.75
  9
$DIMRND
 40
0.0
  9
$DIMDLE
 40
0.0
  9
$DIMEXE
 40
1.0
  9
$DIMTP
 40
0.0
  9
$DIMTM
 40
0.0
  9
$DIMTXT
 40
3.5
  9
$DIMCEN
 40
2.5
  9
$DIMTSZ
 40
0.0
  9
$DIMTOL
 70
     0
  9
$DIMLIM
 70
     0
  9
$DIMTIH
 70
     1
  9
$DIMTOH
 70
     1
  9
$DIMSE1
 70
     0
  9
$DIMSE2
 70
     0
  9
$DIMTAD
 70
     1
  9
$DIMZIN
 70
     0
  9
$DIMBLK
  1

  9
$DIMASO
 70
     1
  9
$DIMSHO
 70
     1
  9
$DIMPOST
  1

  9
$DIMAPOST
  1

  9
$DIMALT
 70
     0
  9
$DIMALTD
 70
     3
  9
$DIMALTF
 40
0.0393700787
  9
$DIMLFAC
 40
1.0
  9
$DIMTOFL
 70
     1
  9
$DIMTVP
 40
0.0
  9
$DIMTIX
 70
     0
  9
$DIMSOXD
 70
     0
  9
$DIMSAH
 70
     0
  9
$DIMBLK1
  1

  9
$DIMBLK2
  1

  9
$DIMSTYLE
  2
ISO-25
  9
$DIMCLRD
 70
     0
  9
$DIMCLRE
 70
     0
  9
$DIMCLRT
 70
     0
  9
$DIMTFAC
 40
1.0
  9
$DIMGAP
 40
1.524
  9
$DIMJUST
 70
     0
  9
$DIMSD1
 70
     0
  9
$DIMSD2
 70
     0
  9
$DIMTOLJ
 70
     0
  9
$DIMTZIN
 70
     0
  9
$DIMALTZ
 70
     0
  9
$DIMALTTZ
 70
     0
  9
$DIMUPT
 70
     0
  9
$DIMDEC
 70
     2
  9
$DIMTDEC
 70
     2
  9
$DIMALTU
 70
     2
  9
$DIMALTTD
 70
     3
  9
$DIMTXSTY
  7
Standard
  9
$DIMAUNIT
 70
     0
  9
$DIMADEC
 70
     2
  9
$DIMALTRND
 40
0.0
  9
$DIMAZIN
 70
     0
  9
$DIMDSEP
 70
    44
  9
$DIMATFIT
 70
     3
  9
$DIMFRAC
 70
     0
  9
$DIMLDRBLK
  1

  9
$DIMLUNIT
 70
     2
  9
$DIMLWD
 70
    -2
  9
$DIMLWE
 70
    -2
  9
$DIMTMOVE
 70
     0
  9
$LUNITS
 70
     2
  9
$LUPREC
 70
     2
  9
$SKETCHINC
 40
1.0
  9
$FILLETRAD
 40
10.0
  9
$AUNITS
 70
     0
  9
$AUPREC
 70
     2
  9
$MENU
  1
.
  9
$ELEVATION
 40
0.0
  9
$PELEVATION
 40
0.0
  9
$THICKNESS
 40
0.0
  9
$LIMCHECK
 70
     0
  9
$CHAMFERA
 40
0.0
  9
$CHAMFERB
 40
0.0
  9
$CHAMFERC
 40
0.0
  9
$CHAMFERD
 40
0.0
  9
$SKPOLY
 70
     0
  9
$TDCREATE
 40
2458192.662373113
  9
$TDUCREATE
 40
2458192.95403978
  9
$TDUPDATE
 40
2458192.662451308
  9
$TDUUPDATE
 40
2458192.954117975
  9
$TDINDWG
 40
0.0000000116
  9
$TDUSRTIMER
 40
0.0000000116
  9
$USRTIMER
 70
     1
  9
$ANGBASE
 50
0.0
  9
$ANGDIR
 70
     0
  9
$PDMODE
 70
     0
  9
$PDSIZE
 40
-1.0
  9
$PLINEWID
 40
0.0
  9
$SPLFRAME
 70
     0
  9
$SPLINETYPE
 70
     6
  9
$SPLINESEGS
 70
     8
  9
$HANDSEED
  5
A9
  9
$SURFTAB1
 70
     6
  9
$SURFTAB2
 70
     6
  9
$SURFTYPE
 70
     6
  9
$SURFU
 70
     6
  9
$SURFV
 70
     6
  9
$UCSBASE
  2

  9
$UCSNAME
  2

  9
$UCSORG
 10
0.0
 20
0.0
 30
0.0
  9
$UCSXDIR
 10
1.0
 20
0.0
 30
0.0
  9
$UCSYDIR
 10
0.0
 20
1.0
 30
0.0
  9
$UCSORTHOREF
  2

  9
$UCSORTHOVIEW
 70
     0
  9
$UCSORGTOP
 10
0.0
 20
0.0
 30
0.0
  9
$UCSORGBOTTOM
 10
0.0
 20
0.0
 30
0.0
  9
$UCSORGLEFT
 10
0.0
 20
0.0
 30
0.0
  9
$UCSORGRIGHT
 10
0.0
 20
0.0
 30
0.0
  9
$UCSORGFRONT
 10
0.0
 20
0.0
 30
0.0
  9
$UCSORGBACK
 10
0.0
 20
0.0
 30
0.0
  9
$PUCSBASE
  2

  9
$PUCSNAME
  2

  9
$PUCSORG
 10
0.0
 20
0.0
 30
0.0
  9
$PUCSXDIR
 10
1.0
 20
0.0
 30
0.0
  9
$PUCSYDIR
 10
0.0
 20
1.0
 30
0.0
  9
$PUCSORTHOREF
  2

  9
$PUCSORTHOVIEW
 70
     0
  9
$PUCSORGTOP
 10
0.0
 20
0.0
 30
0.0
  9
$PUCSORGBOTTOM
 10
0.0
 20
0.0
 30
0.0
  9
$PUCSORGLEFT
 10
0.0
 20
0.0
 30
0.0
  9
$PUCSORGRIGHT
 10
0.0
 20
0.0
 30
0.0
  9
$PUCSORGFRONT
 10
0.0
 20
0.0
 30
0.0
  9
$PUCSORGBACK
 10
0.0
 20
0.0
 30
0.0
  9
$USERI1
 70
     0
  9
$USERI2
 70
     0
  9
$USERI3
 70
     0
  9
$USERI4
 70
     0
  9
$USERI5
 70
     0
  9
$USERR1
 40
0.0
  9
$USERR2
 40
0.0
  9
$USERR3
 40
0.0
  9
$USERR4
 40
0.0
  9
$USERR5
 40
0.0
  9
$WORLDVIEW
 70
     1
  9
$SHADEDGE
 70
     3
  9
$SHADEDIF
 70
    70
  9
$TILEMODE
 70
     1
  9
$MAXACTVP
 70
    64
  9
$PINSBASE
 10
0.0
 20
0.0
 30
0.0
  9
$PLIMCHECK
 70
     0
  9
$PEXTMIN
 10
1.0000000000E+20
 20
1.0000000000E+20
 30
1.0000000000E+20
  9
$PEXTMAX
 10
-1.0000000000E+20
 20
-1.0000000000E+20
 30
-1.0000000000E+20
  9
$PLIMMIN
 10
0.0
 20
0.0
  9
$PLIMMAX
 10
420.0
 20
297.0
  9
$UNITMODE
 70
     0
  9
$VISRETAIN
 70
     1
  9
$PLINEGEN
 70
     0
  9
$PSLTSCALE
 70
     1
  9
$TREEDEPTH
 70
  3020
  9
$CMLSTYLE
  2
Standard
  9
$CMLJUST
 70
     0
  9
$CMLSCALE
 40
20.0
  9
$PROXYGRAPHICS
 70
     1
  9
$MEASUREMENT
 70
     1
  9
$CELWEIGHT
370
    -1
  9
$ENDCAPS
280
     0
  9
$JOINSTYLE
280
     0
  9
$LWDISPLAY
290
     1
  9
$INSUNITS
 70
     4
  9
$HYPERLINKBASE
  1

  9
$STYLESHEET
  1

  9
$XEDIT
290
     1
  9
$CEPSNTYPE
380
     0
  9
$PSTYLEMODE
290
     1
  9
$FINGERPRINTGUID
  2
{2A94BF7A-EEC7-4D98-ADFE-E1C2B3F137CC}
  9
$VERSIONGUID
  2
{FAEB1C32-E019-11D5-929B-00C0DF256EC4}
  9
$EXTNAMES
290
     1
  9
$PSVPSCALE
 40
0.0
  9
$OLESTARTUP
290
     0
  0
ENDSEC
  0
SECTION
  2
CLASSES
  0
CLASS
  1
ACDBDICTIONARYWDFLT
  2
AcDbDictionaryWithDefault
  3
ObjectDBX Classes
 90
        0
280
     0
281
     0
  0
CLASS
  1
VISUALSTYLE
  2
AcDbVisualStyle
  3
ObjectDBX Classes
 90
     4095
280
     0
281
     0
  0
CLASS
  1
MATERIAL
  2
AcDbMaterial
  3
ObjectDBX Classes
 90
     1153
280
     0
281
     0
  0
CLASS
  1
SCALE
  2
AcDbScale
  3
ObjectDBX Classes
 90
     1153
280
     0
281
     0
  0
CLASS
  1
TABLESTYLE
  2
AcDbTableStyle
  3
ObjectDBX Classes
 90
     4095
280
     0
281
     0
  0
CLASS
  1
MLEADERSTYLE
  2
AcDbMLeaderStyle
  3
ACDB_MLEADERSTYLE_CLASS
 90
     4095
280
     0
281
     0
  0
CLASS
  1
SUN
  2
AcDbSun
  3
SCENEOE
 90
     1153
280
     0
281
     0
  0
CLASS
  1
ACDBPLACEHOLDER
  2
AcDbPlaceHolder
  3
ObjectDBX Classes
 90
        0
280
     0
281
     0
  0
CLASS
  1
LAYOUT
  2
AcDbLayout
  3
ObjectDBX Classes
 90
        0
280
     0
281
     0
  0
ENDSEC
  0
SECTION
  2
TABLES
  0
TABLE
  2
VPORT
  5
8
330
0
100
AcDbSymbolTable
 70
     1
  0
VPORT
  5
29
330
8
100
AcDbSymbolTableRecord
100
AcDbViewportTableRecord
  2
*Active
 70
     0
 10
0.0
 20
0.0
 11
1.0
 21
1.0
 12
0.0002349882
 22
-0.0008359798
 13
0.0
 23
0.0
 14
10.0
 24
10.0
 15
10.0
 25
10.0
 16
0.0
 26
0.0
 36
1.0
 17
0.0
 27
0.0
 37
0.0
 40
23.4597556586
 41
0.9997058071
 42
50.0
 43
0.0
 44
0.0
 50
0.0
 51
0.0
 71
     0
 72
   100
 73
     1
 74
     3
 75
     0
 76
     0
 77
     0
 78
     0
281
     0
 65
     1
110
0.0
120
0.0
130
0.0
111
1.0
121
0.0
131
0.0
112
0.0
122
1.0
132
0.0
 79
     0
146
0.0
  0
ENDTAB
  0
TABLE
  2
LTYPE
  5
5
330
0
100
AcDbSymbolTable
 70
     6
  0
LTYPE
  5
14
330
5
100
AcDbSymbolTableRecord
100
AcDbLinetypeTableRecord
  2
ByBlock
 70
     0
  3

 72
    65
 73
     0
 40
0.0
  0
LTYPE
  5
15
330
5
100
AcDbSymbolTableRecord
100
AcDbLinetypeTableRecord
  2
ByLayer
 70
     0
  3

 72
    65
 73
     0
 40
0.0
  0
LTYPE
  5
16
330
5
100
AcDbSymbolTableRecord
100
AcDbLinetypeTableRecord
  2
Continuous
 70
     0
  3
Solid line
 72
    65
 73
     0
 40
0.0
  0
LTYPE
  5
6E
330
5
100
AcDbSymbolTableRecord
100
AcDbLinetypeTableRecord
  2
HIDDEN
 70
     0
  3
Hidden __ __ __ __ __ __ __ __ __ __ __ __ __ __
 72
    65
 73
     2
 40
1.905
 49
1.27
 74
     0
 49
-0.635
 74
     0
  0
LTYPE
  5
6F
330
5
100
AcDbSymbolTableRecord
100
AcDbLinetypeTableRecord
  2
PHANTOM
 70
     0
  3
Phantom ______  __  __  ______  __  __  ______
 72
    65
 73
     6
 40
12.7
 49
6.35
 74
     0
 49
-1.27
 74
     0
 49
1.27
 74
     0
 49
-1.27
 74
     0
 49
1.27
 74
     0
 49
-1.27
 74
     0
  0
LTYPE
  5
70
330
5
100
AcDbSymbolTableRecord
100
AcDbLinetypeTableRecord
  2
CENTER
 70
     0
  3
Center ____ _ ____ _ ____ _ ____ _ ____ _ ____
 72
    65
 73
     4
 40
10.16
 49
6.35
 74
     0
 49
-1.27
 74
     0
 49
1.27
 74
     0
 49
-1.27
 74
     0
  0
LTYPE
  5
71
330
5
100
AcDbSymbolTableRecord
100
AcDbLinetypeTableRecord
  2
CENTERX2
 70
     0
  3
Center (2x) ________  __  ________  __  _____
 72
    65
 73
     4
 40
20.32
 49
12.7
 74
     0
 49
-2.54
 74
     0
 49
2.54
 74
     0
 49
-2.54
 74
     0
  0
LTYPE
  5
72
330
5
100
AcDbSymbolTableRecord
100
AcDbLinetypeTableRecord
  2
DOT2
 70
     0
  3
Dot (.5x) ........................................
 72
    65
 73
     2
 40
0.635
 49
0.0
 74
     0
 49
-0.635
 74
     0
  0
ENDTAB
  0
TABLE
  2
LAYER
  5
2
330
0
100
AcDbSymbolTable
 70
     1
  0
LAYER
  5
10
330
2
100
AcDbSymbolTableRecord
100
AcDbLayerTableRecord
  2
0
 70
     0
 62
     7
  6
Continuous
370
    -3
390
F
  0
ENDTAB
  0
TABLE
  2
STYLE
  5
3
330
0
100
AcDbSymbolTable
 70
     2
  0
STYLE
  5
11
330
3
100
AcDbSymbolTableRecord
100
AcDbTextStyleTableRecord
  2
Standard
 70
     0
 40
0.0
 41
1.0
 50
0.0
 71
     0
 42
3.5
  3
txt
  4

  0
STYLE
  5
A6
330
3
100
AcDbSymbolTableRecord
100
AcDbTextStyleTableRecord
  2
SLDTEXTSTYLE0
 70
     0
 40
0.0
 41
0.7
 50
0.0
 71
     0
 42
3.5
  3
TXT
  4

  0
ENDTAB
  0
TABLE
  2
VIEW
  5
6
330
0
100
AcDbSymbolTable
 70
     0
  0
ENDTAB
  0
TABLE
  2
UCS
  5
7
330
0
100
AcDbSymbolTable
 70
     0
  0
ENDTAB
  0
TABLE
  2
APPID
  5
9
330
0
100
AcDbSymbolTable
 70
     1
  0
APPID
  5
12
330
9
100
AcDbSymbolTableRecord
100
AcDbRegAppTableRecord
  2
ACAD
 70
     0
  0
ENDTAB
  0
TABLE
  2
DIMSTYLE
  5
A
330
0
100
AcDbSymbolTable
 70
     1
100
AcDbDimStyleTable
  0
DIMSTYLE
105
27
330
A
100
AcDbSymbolTableRecord
100
AcDbDimStyleTableRecord
  2
ISO-25
 70
     0
 41
2.5
 42
0.625
 43
3.75
 44
1.25
 73
     0
 74
     0
 77
     1
 78
     8
140
2.5
141
2.5
143
0.0393700787
147
0.625
171
     3
172
     1
178
     0
271
     2
272
     2
274
     3
278
    44
283
     0
284
     8
340
11
  0
ENDTAB
  0
TABLE
  2
BLOCK_RECORD
  5
1
330
0
100
AcDbSymbolTable
 70
     1
  0
BLOCK_RECORD
  5
1F
330
1
100
AcDbSymbolTableRecord
100
AcDbBlockTableRecord
  2
*Model_Space
340
22
  0
BLOCK_RECORD
  5
1B
330
1
100
AcDbSymbolTableRecord
100
AcDbBlockTableRecord
  2
*Paper_Space
340
1E
  0
BLOCK_RECORD
  5
23
330
1
100
AcDbSymbolTableRecord
100
AcDbBlockTableRecord
  2
*Paper_Space0
340
26
  0
ENDTAB
  0
ENDSEC
  0
SECTION
  2
BLOCKS
  0
BLOCK
  5
20
330
1F
100
AcDbEntity
  8
0
100
AcDbBlockBegin
  2
*Model_Space
 70
     0
 10
0.0
 20
0.0
 30
0.0
  3
*Model_Space
  1

  0
ENDBLK
  5
21
330
1F
100
AcDbEntity
  8
0
100
AcDbBlockEnd
  0
BLOCK
  5
1C
330
1B
100
AcDbEntity
 67
     1
  8
0
100
AcDbBlockBegin
  2
*Paper_Space
 70
     0
 10
0.0
 20
0.0
 30
0.0
  3
*Paper_Space
  1

  0
ENDBLK
  5
1D
330
1B
100
AcDbEntity
 67
     1
  8
0
100
AcDbBlockEnd
  0
BLOCK
  5
24
330
23
100
AcDbEntity
  8
0
100
AcDbBlockBegin
  2
*Paper_Space0
 70
     0
 10
0.0
 20
0.0
 30
0.0
  3
*Paper_Space0
  1

  0
ENDBLK
  5
25
330
23
100
AcDbEntity
  8
0
100
AcDbBlockEnd
  0
ENDSEC
  0
SECTION
  2
ENTITIES
  0
CIRCLE
  5
73
330
1F
100
AcDbEntity
  8
0
  6
Continuous
 62
     7
370
    25
100
AcDbCircle
 10
0.0
 20
0.0
 30
0.0
 40
2.0
  0
SPLINE
  5
74
330
1F
100
AcDbEntity
  8
0
  6
Continuous
 62
     7
370
    25
100
AcDbSpline
210
0.0
220
0.0
230
1.0
 70
     8
 71
     3
 72
    10
 73
     6
 74
     0
 42
0.000000001
 43
0.00000001
 40
0.3233537539793108
 40
0.3233537539793108
 40
0.3233537539793108
 40
0.3233537539793108
 40
0.5
 40
0.5
 40
0.6765974949047403
 40
0.6765974949047403
 40
0.6765974949047403
 40
0.6765974949047403
 10
8.17310858259456
 20
5.761431272202133
 30
0.0
 10
7.843635425307756
 20
6.228991299212953
 30
0.0
 10
7.474029965461172
 20
6.668294389921204
 30
0.0
 10
6.664954424550094
 20
7.477193626827409
 30
0.0
 10
6.225779193092081
 20
7.847015073377905
 30
0.0
 10
5.758497759355364
 20
8.17712081455014
 30
0.0
  0
SPLINE
  5
75
330
1F
100
AcDbEntity
  8
0
  6
Continuous
 62
     7
370
    25
100
AcDbSpline
210
0.0
220
0.0
230
1.0
 70
    24
 71
     3
 72
     8
 73
     4
 74
     0
 42
0.000000001
 43
0.00000001
 40
0.0000510829701345
 40
0.0000510829701345
 40
0.0000510829701345
 40
0.0000510829701345
 40
0.9999999134770496
 40
0.9999999134770496
 40
0.9999999134770496
 40
0.9999999134770496
 10
8.173108494820127
 20
5.761431436049843
 30
0.0
 10
6.371429311054146
 20
4.80346162121329
 30
0.0
 10
4.569750127288166
 20
3.845491806376738
 30
0.0
 10
2.768070943522188
 20
2.887521991540186
 30
0.0
  0
SPLINE
  5
76
330
1F
100
AcDbEntity
  8
0
  6
Continuous
 62
     7
370
    25
100
AcDbSpline
210
0.0
220
0.0
230
1.0
 70
     8
 71
     3
 72
    10
 73
     6
 74
     0
 42
0.000000001
 43
0.00000001
 40
0.251462914927677
 40
0.251462914927677
 40
0.251462914927677
 40
0.251462914927677
 40
0.5
 40
0.5
 40
0.7485341312297361
 40
0.7485341312297361
 40
0.7485341312297361
 40
0.7485341312297361
 10
2.768055596193773
 20
2.887505843327904
 30
0.0
 10
2.468044744793998
 20
3.173378579246473
 30
0.0
 10
2.125691306205418
 20
3.41363863363268
 30
0.0
 10
1.381282291753063
 20
3.77671157920198
 30
0.0
 10
0.9811828157332533
 20
3.898551140885495
 30
0.0
 10
0.5712038142781848
 20
3.959005492898514
 30
0.0
  0
SPLINE
  5
77
330
1F
100
AcDbEntity
  8
0
  6
Continuous
 62
     7
370
    25
100
AcDbSpline
210
0.0
220
0.0
230
1.0
 70
    24
 71
     3
 72
     8
 73
     4
 74
     0
 42
0.000000001
 43
0.00000001
 40
0.0
 40
0.0
 40
0.0
 40
0.0
 40
0.9999999174114349
 40
0.9999999174114349
 40
0.9999999174114349
 40
0.9999999174114349
 10
0.5712037397145613
 20
3.95900571958871
 30
0.0
 10
0.2168516897403049
 20
5.968636058351974
 30
0.0
 10
-0.1375003602339515
 20
7.978266397115238
 30
0.0
 10
-0.4918524102082079
 20
9.987896735878502
 30
0.0
  0
SPLINE
  5
78
330
1F
100
AcDbEntity
  8
0
  6
Continuous
 62
     7
370
    25
100
AcDbSpline
210
0.0
220
0.0
230
1.0
 70
     8
 71
     3
 72
    10
 73
     6
 74
     0
 42
0.000000001
 43
0.00000001
 40
0.323349698690582
 40
0.323349698690582
 40
0.323349698690582
 40
0.323349698690582
 40
0.5
 40
0.5
 40
0.6765948962121059
 40
0.6765948962121059
 40
0.6765948962121059
 40
0.6765948962121059
 10
2.89789116788571
 20
9.570581008967812
 30
0.0
 10
2.350469172648183
 20
9.73643974427905
 30
0.0
 10
1.788796533489601
 20
9.85532830260057
 30
0.0
 10
0.6532883774757408
 20
9.995161162316384
 30
0.0
 10
0.0795471254988205
 20
10.01646816506284
 30
0.0
 10
-0.4919134588453161
 20
9.989175224258933
 30
0.0
  0
SPLINE
  5
79
330
1F
100
AcDbEntity
  8
0
  6
Continuous
 62
     7
370
    25
100
AcDbSpline
210
0.0
220
0.0
230
1.0
 70
     8
 71
     3
 72
    12
 73
     8
 74
     0
 42
0.000000001
 43
0.00000001
 40
0.174850925298928
 40
0.174850925298928
 40
0.174850925298928
 40
0.174850925298928
 40
0.5
 40
0.5
 40
0.75
 40
0.75
 40
0.8263978485793378
 40
0.8263978485793378
 40
0.8263978485793378
 40
0.8263978485793378
 10
2.900586874060135
 20
9.579476374000281
 30
0.0
 10
3.085267039997477
 20
9.523497433619932
 30
0.0
 10
3.281751365436628
 20
9.51384090960714
 30
0.0
 10
3.610158964568489
 20
9.609391458844987
 30
0.0
 10
3.742765703783302
 20
9.683696918552174
 30
0.0
 10
3.888226775714061
 20
9.81252541513978
 30
0.0
 10
3.918948645998367
 20
9.84555174609465
 30
0.0
 10
3.947169098177215
 20
9.880644239113163
 30
0.0
  0
SPLINE
  5
7A
330
1F
100
AcDbEntity
  8
0
  6
Continuous
 62
     7
370
    25
100
AcDbSpline
210
0.0
220
0.0
230
1.0
 70
     8
 71
     3
 72
    14
 73
    10
 74
     0
 42
0.000000001
 43
0.00000001
 40
0.0
 40
0.0
 40
0.0
 40
0.0
 40
0.0997151878143669
 40
0.0997151878143669
 40
0.3497151878143669
 40
0.3497151878143669
 40
0.599715187814367
 40
0.599715187814367
 40
0.7132890709339184
 40
0.7132890709339184
 40
0.7132890709339184
 40
0.7132890709339184
 10
3.964736482637778
 20
9.872155744976853
 30
0.0
 10
3.980311494864982
 20
9.939955512606387
 30
0.0
 10
3.989041295502874
 20
10.00902097991807
 30
0.0
 10
3.984436970891266
 20
10.2556523020214
 30
0.0
 10
3.935588051825648
 20
10.43020734459052
 30
0.0
 10
3.754211005044215
 20
10.7319522905597
 30
0.0
 10
3.622945586816043
 20
10.85706818405961
 30
0.0
 10
3.398810290733525
 20
10.98147919751486
 30
0.0
 10
3.324142595138623
 20
11.0085544475082
 30
0.0
 10
3.247013107835193
 20
11.02737305182005
 30
0.0
  0
SPLINE
  5
7B
330
1F
100
AcDbEntity
  8
0
  6
Continuous
 62
     7
370
    25
100
AcDbSpline
210
0.0
220
0.0
230
1.0
 70
     8
 71
     3
 72
    14
 73
    10
 74
     0
 42
0.000000001
 43
0.00000001
 40
0.0
 40
0.0
 40
0.0
 40
0.0
 40
0.0458836030436693
 40
0.0458836030436693
 40
0.2958836030436693
 40
0.2958836030436693
 40
0.5458836030436693
 40
0.5458836030436693
 40
0.5946111759940326
 40
0.5946111759940326
 40
0.5946111759940326
 40
0.5946111759940326
 10
3.248495289495042
 20
11.03287932956198
 30
0.0
 10
2.986526823063703
 20
11.10923226601902
 30
0.0
 10
2.721575336206694
 20
11.17593973118978
 30
0.0
 10
1.00397319415508
 20
11.55129714206426
 30
0.0
 10
-0.5084691911278827
 20
11.58436621295616
 30
0.0
 10
-3.435477188586174
 20
11.07490229965794
 30
0.0
 10
-4.849556869982718
 20
10.53396794959916
 30
0.0
 10
-6.352092954691799
 20
9.590341278751023
 30
0.0
 10
-6.59219414534827
 20
9.427732678275742
 30
0.0
 10
-6.825876462848434
 20
9.256377477682374
 30
0.0
  0
SPLINE
  5
7C
330
1F
100
AcDbEntity
  8
0
  6
Continuous
 62
     7
370
    25
100
AcDbSpline
210
0.0
220
0.0
230
1.0
 70
     8
 71
     3
 72
    14
 73
    10
 74
     0
 42
0.000000001
 43
0.00000001
 40
0.0
 40
0.0
 40
0.0
 40
0.0
 40
0.0895049877096876
 40
0.0895049877096876
 40
0.3395049877096876
 40
0.3395049877096876
 40
0.5895049877096876
 40
0.5895049877096876
 40
0.6924613458145683
 40
0.6924613458145683
 40
0.6924613458145683
 40
0.6924613458145683
 10
-6.82308311511692
 20
9.252551145244407
 30
0.0
 10
-6.873566755359271
 20
9.215883945239352
 30
0.0
 10
-6.920459662675356
 20
9.174575473969318
 30
0.0
 10
-7.078204779264561
 20
8.99439907600007
 30
0.0
 10
-7.159472568508194
 20
8.832376774412802
 30
0.0
 10
-7.228228603232575
 20
8.48709391470778
 30
0.0
 10
-7.215256126990226
 20
8.306217405207402
 30
0.0
 10
-7.135488836329584
 20
8.070484947745145
 30
0.0
 10
-7.10287601233762
 20
8.00631939690253
 30
0.0
 10
-7.063895266982754
 20
7.945901343995246
 30
0.0
  0
SPLINE
  5
7D
330
1F
100
AcDbEntity
  8
0
  6
Continuous
 62
     7
370
    25
100
AcDbSpline
210
0.0
220
0.0
230
1.0
 70
     8
 71
     3
 72
    12
 73
     8
 74
     0
 42
0.000000001
 43
0.00000001
 40
0.1782395748497256
 40
0.1782395748497256
 40
0.1782395748497256
 40
0.1782395748497256
 40
0.5
 40
0.5
 40
0.75
 40
0.75
 40
0.824074286598878
 40
0.824074286598878
 40
0.824074286598878
 40
0.824074286598878
 10
-7.076361122093298
 20
7.935778227655168
 30
0.0
 10
-6.909446773571049
 20
7.843091445962457
 30
0.0
 10
-6.721633360860287
 20
7.792420897246379
 30
0.0
 10
-6.382349412812168
 20
7.814634966863859
 30
0.0
 10
-6.236821401084538
 20
7.858537659606847
 30
0.0
 10
-6.068172767651832
 20
7.952227071654473
 30
0.0
 10
-6.03209332860675
 20
7.976953640750257
 30
0.0
 10
-5.997908323073293
 20
8.00411235505948
 30
0.0
  0
SPLINE
  5
7E
330
1F
100
AcDbEntity
  8
0
  6
Continuous
 62
     7
370
    25
100
AcDbSpline
210
0.0
220
0.0
230
1.0
 70
     8
 71
     3
 72
    10
 73
     6
 74
     0
 42
0.000000001
 43
0.00000001
 40
0.3233537540062829
 40
0.3233537540062829
 40
0.3233537540062829
 40
0.3233537540062829
 40
0.5
 40
0.5
 40
0.676597494904744
 40
0.676597494904744
 40
0.676597494904744
 40
0.676597494904744
 10
-2.953817305971318
 20
9.5534683508208
 30
0.0
 10
-3.500306121123237
 20
9.384604751887062
 30
0.0
 10
-4.032322556391654
 20
9.168841191578213
 30
0.0
 10
-5.051649538474297
 20
8.649328237200312
 30
0.0
 10
-5.53908324511094
 20
8.345928883395157
 30
0.0
 10
-5.997430365499794
 20
8.003526114859055
 30
0.0
  0
SPLINE
  5
7F
330
1F
100
AcDbEntity
  8
0
  6
Continuous
 62
     7
370
    25
100
AcDbSpline
210
0.0
220
0.0
230
1.0
 70
    24
 71
     3
 72
     8
 73
     4
 74
     0
 42
0.000000001
 43
0.00000001
 40
0.0000510829753462
 40
0.0000510829753462
 40
0.0000510829753462
 40
0.0000510829753462
 40
1.0
 40
1.0
 40
1.0
 40
1.0
 10
-2.95381748866763
 20
9.553468318020027
 30
0.0
 10
-2.599483540050406
 20
7.543940637153812
 30
0.0
 10
-2.245149591433182
 20
5.534412956287597
 30
0.0
 10
-1.89081564281596
 20
3.524885275421384
 30
0.0
  0
SPLINE
  5
80
330
1F
100
AcDbEntity
  8
0
  6
Continuous
 62
     7
370
    25
100
AcDbSpline
210
0.0
220
0.0
230
1.0
 70
     8
 71
     3
 72
    10
 73
     6
 74
     0
 42
0.000000001
 43
0.00000001
 40
0.2514629207015051
 40
0.2514629207015051
 40
0.2514629207015051
 40
0.2514629207015051
 40
0.5
 40
0.5
 40
0.7485341524851872
 40
0.7485341524851872
 40
0.7485341524851872
 40
0.7485341524851872
 10
-1.89080505294837
 20
3.524865675443838
 30
0.0
 10
-2.255394622976796
 20
3.32787793593845
 30
0.0
 10
-2.589688535063618
 20
3.076524911925616
 30
0.0
 10
-3.165026479988764
 20
2.480745559764578
 30
0.0
 10
-3.40454034296682
 20
2.137878807907239
 30
0.0
 10
-3.588726333462243
 20
1.766646992584461
 30
0.0
  0
SPLINE
  5
81
330
1F
100
AcDbEntity
  8
0
  6
Continuous
 62
     7
370
    25
100
AcDbSpline
210
0.0
220
0.0
230
1.0
 70
    24
 71
     3
 72
     8
 73
     4
 74
     0
 42
0.000000001
 43
0.00000001
 40
0.0
 40
0.0
 40
0.0
 40
0.0
 40
0.9999999174114351
 40
0.9999999174114351
 40
0.9999999174114351
 40
0.9999999174114351
 10
-3.588726524842306
 20
1.766647086968215
 30
0.0
 10
-5.609499359301195
 20
2.050648187866978
 30
0.0
 10
-7.630272193760081
 20
2.334649288765741
 30
0.0
 10
-9.651045028218968
 20
2.618650389664504
 30
0.0
  0
SPLINE
  5
82
330
1F
100
AcDbEntity
  8
0
  6
Continuous
 62
     7
370
    25
100
AcDbSpline
210
0.0
220
0.0
230
1.0
 70
     8
 71
     3
 72
    10
 73
     6
 74
     0
 42
0.000000001
 43
0.00000001
 40
0.323349698690576
 40
0.323349698690576
 40
0.323349698690576
 40
0.323349698690576
 40
0.5
 40
0.5
 40
0.6765948962871101
 40
0.6765948962871101
 40
0.6765948962871101
 40
0.6765948962871101
 10
-8.20666581458372
 20
5.713530456545091
 30
0.0
 10
-8.533569545208993
 20
5.244154368687839
 30
0.0
 10
-8.820205674089053
 20
4.746710530149445
 30
0.0
 10
-9.304085944076352
 20
3.709988828870257
 30
0.0
 10
-9.501645905180984
 20
3.170912698220325
 30
0.0
 10
-9.652279808182461
 20
2.618987402893789
 30
0.0
  0
SPLINE
  5
83
330
1F
100
AcDbEntity
  8
0
  6
Continuous
 62
     7
370
    25
100
AcDbSpline
210
0.0
220
0.0
230
1.0
 70
     8
 71
     3
 72
    12
 73
     8
 74
     0
 42
0.000000001
 43
0.00000001
 40
0.1748509252989615
 40
0.1748509252989615
 40
0.1748509252989615
 40
0.1748509252989615
 40
0.5
 40
0.5
 40
0.75
 40
0.75
 40
0.8263978161661798
 40
0.8263978161661798
 40
0.8263978161661798
 40
0.8263978161661798
 10
-8.214292790442931
 20
5.718843044434491
 30
0.0
 10
-8.1039843446203
 20
5.877185875775031
 30
0.0
 10
-8.034083448844191
 20
6.061069543807234
 30
0.0
 10
-8.023473892118817
 20
6.402930474498778
 30
0.0
 10
-8.0531648477836
 20
6.552008627758031
 30
0.0
 10
-8.130738077997695
 20
6.730160505198912
 30
0.0
 10
-8.152654394351488
 20
6.769584421891355
 30
0.0
 10
-8.177308726414225
 20
6.807267829035568
 30
0.0
  0
SPLINE
  5
84
330
1F
100
AcDbEntity
  8
0
  6
Continuous
 62
     7
370
    25
100
AcDbSpline
210
0.0
220
0.0
230
1.0
 70
     8
 71
     3
 72
    14
 73
    10
 74
     0
 42
0.000000001
 43
0.00000001
 40
0.0
 40
0.0
 40
0.0
 40
0.0
 40
0.0997152121440659
 40
0.0997152121440659
 40
0.3497152121440659
 40
0.3497152121440659
 40
0.5997152121440659
 40
0.5997152121440659
 40
0.713286614384157
 40
0.713286614384157
 40
0.713286614384157
 40
0.713286614384157
 10
-8.163807056111597
 20
6.821352337341501
 30
0.0
 10
-8.22347553639214
 20
6.857116346335884
 30
0.0
 10
-8.2864630566948
 20
6.886761292711001
 30
0.0
 10
-8.522446213673621
 20
6.9585955946586
 30
0.0
 10
-8.703553070509283
 20
6.966077986474972
 30
0.0
 10
-9.046578157477397
 20
6.886822480498339
 30
0.0
 10
-9.206133688288823
 20
6.80064458648611
 30
0.0
 10
-9.393715928869868
 20
6.625925562279458
 30
0.0
 10
-9.442538755680074
 20
6.563280620847244
 30
0.0
 10
-9.484270032519497
 20
6.495743076950404
 30
0.0
  0
SPLINE
  5
85
330
1F
100
AcDbEntity
  8
0
  6
Continuous
 62
     7
370
    25
100
AcDbSpline
210
0.0
220
0.0
230
1.0
 70
     8
 71
     3
 72
    14
 73
    10
 74
     0
 42
0.000000001
 43
0.00000001
 40
0.0
 40
0.0
 40
0.0
 40
0.0
 40
0.0458836030161783
 40
0.0458836030161783
 40
0.2958836030161783
 40
0.2958836030161783
 40
0.5458836030161783
 40
0.5458836030161783
 40
0.5946111791704675
 40
0.5946111791704675
 40
0.5946111791704675
 40
0.5946111791704675
 10
-9.489051529553135
 20
6.498849822545654
 30
0.0
 10
-9.642620195324602
 20
6.273297360546104
 30
0.0
 10
-9.787937276792862
 20
6.041927262994347
 30
0.0
 10
-10.67569163973099
 20
4.52438237245944
 30
0.0
 10
-11.17451259515597
 20
3.096183091308875
 30
0.0
 10
-11.59447883448246
 20
0.1550000548482278
 30
0.0
 10
-11.51699434892301
 20
-1.357027547713861
 30
0.0
 10
-11.08386123485422
 20
-3.07762097813635
 30
0.0
 10
-11.00340660811447
 20
-3.356219619241742
 30
0.0
 10
-10.91264992805938
 20
-3.631416396748433
 30
0.0
  0
SPLINE
  5
86
330
1F
100
AcDbEntity
  8
0
  6
Continuous
 62
     7
370
    25
100
AcDbSpline
210
0.0
220
0.0
230
1.0
 70
     8
 71
     3
 72
    14
 73
    10
 74
     0
 42
0.000000001
 43
0.00000001
 40
0.0
 40
0.0
 40
0.0
 40
0.0
 40
0.0895047447496947
 40
0.0895047447496947
 40
0.3395047447496947
 40
0.3395047447496947
 40
0.5895047447496947
 40
0.5895047447496947
 40
0.6924610577134531
 40
0.6924610577134531
 40
0.6924610577134531
 40
0.6924610577134531
 10
-10.90814753869969
 20
-3.629942595913356
 30
0.0
 10
-10.88887528429971
 20
-3.689286007029095
 30
0.0
 10
-10.86407934566836
 20
-3.746648667519692
 30
0.0
 10
-10.74146741784769
 20
-3.952350610316744
 30
0.0
 10
-10.61248818010953
 20
-4.07970851550001
 30
0.0
 10
-10.30535144961772
 20
-4.251797661874482
 30
0.0
 10
-10.12931895099465
 20
-4.295354019130549
 30
0.0
 10
-9.880474644639307
 20
-4.292336153428108
 30
0.0
 10
-9.809371693064987
 20
-4.281147769744674
 30
0.0
 10
-9.739865026452959
 20
-4.262745097375121
 30
0.0
  0
SPLINE
  5
87
330
1F
100
AcDbEntity
  8
0
  6
Continuous
 62
     7
370
    25
100
AcDbSpline
210
0.0
220
0.0
230
1.0
 70
     8
 71
     3
 72
    12
 73
     8
 74
     0
 42
0.000000001
 43
0.00000001
 40
0.178239536879087
 40
0.178239536879087
 40
0.178239536879087
 40
0.178239536879087
 40
0.5
 40
0.5
 40
0.75
 40
0.75
 40
0.8240742865988654
 40
0.8240742865988654
 40
0.8240742865988654
 40
0.8240742865988654
 10
-9.734089489813764
 20
-4.277729066948454
 30
0.0
 10
-9.594359727415716
 20
-4.14762587122236
 30
0.0
 10
-9.488131616063802
 20
-3.984662745306439
 30
0.0
 10
-9.404413940301753
 20
-3.655119988729947
 30
0.0
 10
-9.401197253536434
 20
-3.503147946716506
 30
0.0
 10
-9.438185885563378
 20
-3.313801944410347
 30
0.0
 10
-9.450553090415097
 20
-3.271847428739071
 30
0.0
 10
-9.46581881497044
 20
-3.230943052199975
 30
0.0
  0
SPLINE
  5
88
330
1F
100
AcDbEntity
  8
0
  6
Continuous
 62
     7
370
    25
100
AcDbSpline
210
0.0
220
0.0
230
1.0
 70
     8
 71
     3
 72
    10
 73
     6
 74
     0
 42
0.000000001
 43
0.00000001
 40
0.3233537539793066
 40
0.3233537539793066
 40
0.3233537539793066
 40
0.3233537539793066
 40
0.5
 40
0.5
 40
0.6765974949047466
 40
0.6765974949047466
 40
0.6765974949047466
 40
0.6765974949047466
 10
-9.998668074087808
 20
0.1429368790994083
 30
0.0
 10
-10.00694357909085
 20
-0.4289865915221993
 30
0.0
 10
-9.966142358866009
 20
-1.001638896051234
 30
0.0
 10
-9.787045538579942
 20
-2.131614796383417
 30
0.0
 10
-9.649120905085699
 20
-2.688947355750275
 30
0.0
 10
-9.465113570394905
 20
-3.230669645719905
 30
0.0
  0
SPLINE
  5
89
330
1F
100
AcDbEntity
  8
0
  6
Continuous
 62
     7
370
    25
100
AcDbSpline
210
0.0
220
0.0
230
1.0
 70
    24
 71
     3
 72
     8
 73
     4
 74
     0
 42
0.000000001
 43
0.00000001
 40
0.0000510829701345
 40
0.0000510829701345
 40
0.0000510829701345
 40
0.0000510829701345
 40
0.9999999134770498
 40
0.9999999134770498
 40
0.9999999134770498
 40
0.9999999134770498
 10
-9.99866809938407
 20
0.1429366949513106
 30
0.0
 10
-7.977998492003533
 20
-0.1410498983276975
 30
0.0
 10
-5.957328884622997
 20
-0.4250364916067055
 30
0.0
 10
-3.936659277242463
 20
-0.7090230848857136
 30
0.0
  0
SPLINE
  5
8A
330
1F
100
AcDbEntity
  8
0
  6
Continuous
 62
     7
370
    25
100
AcDbSpline
210
0.0
220
0.0
230
1.0
 70
     8
 71
     3
 72
    10
 73
     6
 74
     0
 42
0.000000001
 43
0.00000001
 40
0.2514629149276744
 40
0.2514629149276744
 40
0.2514629149276744
 40
0.2514629149276744
 40
0.5
 40
0.5
 40
0.7485341524851864
 40
0.7485341524851864
 40
0.7485341524851864
 40
0.7485341524851864
 10
-3.936637369311925
 20
-0.7090190416408536
 30
0.0
 10
-3.861955270238047
 20
-1.116636897207943
 30
0.0
 10
-3.726206837020386
 20
-1.512241666549828
 30
0.0
 10
-3.337376199847609
 20
-2.243526521352589
 30
0.0
 10
-3.085304395321347
 20
-2.577269394610949
 30
0.0
 10
-2.789158559491406
 20
-2.867157620869297
 30
0.0
  0
SPLINE
  5
8B
330
1F
100
AcDbEntity
  8
0
  6
Continuous
 62
     7
370
    25
100
AcDbSpline
210
0.0
220
0.0
230
1.0
 70
    24
 71
     3
 72
     8
 73
     4
 74
     0
 42
0.000000001
 43
0.00000001
 40
0.0
 40
0.0
 40
0.0
 40
0.0
 40
0.9999999174114349
 40
0.9999999174114349
 40
0.9999999174114349
 40
0.9999999174114349
 10
-2.789158708395381
 20
-2.867157773716369
 30
0.0
 10
-3.68371295365917
 20
-4.701265779281812
 30
0.0
 10
-4.57826719892296
 20
-6.535373784847255
 30
0.0
 10
-5.472821444186749
 20
-8.369481790412697
 30
0.0
  0
SPLINE
  5
8C
330
1F
100
AcDbEntity
  8
0
  6
Continuous
 62
     7
370
    25
100
AcDbSpline
210
0.0
220
0.0
230
1.0
 70
     8
 71
     3
 72
    10
 73
     6
 74
     0
 42
0.000000001
 43
0.00000001
 40
0.3233496986905806
 40
0.3233496986905806
 40
0.3233496986905806
 40
0.3233496986905806
 40
0.5
 40
0.5
 40
0.6765948962870993
 40
0.6765948962870993
 40
0.6765948962870993
 40
0.6765948962870993
 10
-7.969889575610275
 20
-6.039424991065297
 30
0.0
 10
-7.624505196948292
 20
-6.495374102178763
 30
0.0
 10
-7.239983427841272
 20
-6.921699860211223
 30
0.0
 10
-6.403529724923954
 20
-7.702261968221833
 30
0.0
 10
-5.951887243479571
 20
-8.056736342222115
 30
0.0
 10
-5.473523530807658
 20
-8.37055199312794
 30
0.0
  0
SPLINE
  5
8D
330
1F
100
AcDbEntity
  8
0
  6
Continuous
 62
     7
370
    25
100
AcDbSpline
210
0.0
220
0.0
230
1.0
 70
     8
 71
     3
 72
    12
 73
     8
 74
     0
 42
0.000000001
 43
0.00000001
 40
0.1748509252989331
 40
0.1748509252989331
 40
0.1748509252989331
 40
0.1748509252989331
 40
0.5
 40
0.5
 40
0.75
 40
0.75
 40
0.8263978161661755
 40
0.8263978161661755
 40
0.8263978161661755
 40
0.8263978161661755
 10
-7.977299012097067
 20
-6.045036996213891
 30
0.0
 10
-8.093804809269834
 20
-5.891196804190195
 30
0.0
 10
-8.247088005275275
 20
-5.767893923357489
 30
0.0
 10
-8.56893853774528
 20
-5.652162798002292
 30
0.0
 10
-8.719895296719393
 20
-5.634332892015179
 30
0.0
 10
-8.913299247094475
 20
-5.653057460391319
 30
0.0
 10
-8.957566134170117
 20
-5.66171845562999
 30
0.0
 10
-9.001023791683169
 20
-5.67352130557965
 30
0.0
  0
SPLINE
  5
8E
330
1F
100
AcDbEntity
  8
0
  6
Continuous
 62
     7
370
    25
100
AcDbSpline
210
0.0
220
0.0
230
1.0
 70
     8
 71
     3
 72
    14
 73
    10
 74
     0
 42
0.000000001
 43
0.00000001
 40
0.0
 40
0.0
 40
0.0
 40
0.0
 40
0.09971521214407
 40
0.09971521214407
 40
0.34971521214407
 40
0.34971521214407
 40
0.59971521214407
 40
0.59971521214407
 40
0.7132890952636307
 40
0.7132890952636307
 40
0.7132890952636307
 40
0.7132890952636307
 10
-9.010246709510376
 20
-5.656328101633514
 30
0.0
 10
-9.062698877748542
 20
-5.702024512055513
 30
0.0
 10
-9.11035711138088
 20
-5.752768411457389
 30
0.0
 10
-9.251598398234373
 20
-5.955003710557135
 30
0.0
 10
-9.314679672288852
 20
-6.124934380666586
 30
0.0
 10
-9.345303788247598
 20
-6.475661923124897
 30
0.0
 10
-9.31264911115392
 20
-6.654038684203254
 30
0.0
 10
-9.204446806515653
 20
-6.886432729931476
 30
0.0
 10
-9.159953804496773
 20
-6.95222563759639
 30
0.0
 10
-9.108616036584102
 20
-7.012785783448937
 30
0.0
  0
SPLINE
  5
8F
330
1F
100
AcDbEntity
  8
0
  6
Continuous
 62
     7
370
    25
100
AcDbSpline
210
0.0
220
0.0
230
1.0
 70
     8
 71
     3
 72
    14
 73
    10
 74
     0
 42
0.000000001
 43
0.00000001
 40
0.0
 40
0.0
 40
0.0
 40
0.0
 40
0.0458836030436683
 40
0.0458836030436683
 40
0.2958836030436683
 40
0.2958836030436683
 40
0.5458836030436683
 40
0.5458836030436683
 40
0.5946111759940303
 40
0.5946111759940303
 40
0.5946111759940303
 40
0.5946111759940303
 10
-9.113051655587402
 20
-7.016369251197031
 30
0.0
 10
-8.945993844272778
 20
-7.232121275495216
 30
0.0
 10
-8.770853252965736
 20
-7.441823325017544
 30
0.0
 10
-7.601913480921867
 20
-8.755075057783474
 30
0.0
 10
-6.397759400392237
 20
-9.670819827134572
 30
0.0
 10
-3.730304812965184
 20
-10.97910699750364
 30
0.0
 10
-2.268337085892099
 20
-11.37265709775625
 30
0.0
 10
-0.4981100179064863
 20
-11.4924156363239
 30
0.0
 10
-0.2082851370404598
 20
-11.50199045403361
 30
0.0
 10
0.0814878889144883
 20
-11.50071620462717
 30
0.0
  0
SPLINE
  5
90
330
1F
100
AcDbEntity
  8
0
  6
Continuous
 62
     7
370
    25
100
AcDbSpline
210
0.0
220
0.0
230
1.0
 70
     8
 71
     3
 72
    14
 73
    10
 74
     0
 42
0.000000001
 43
0.00000001
 40
0.0
 40
0.0
 40
0.0
 40
0.0
 40
0.0895049877096959
 40
0.0895049877096959
 40
0.3395049877096959
 40
0.3395049877096959
 40
0.589504987709696
 40
0.589504987709696
 40
0.6924613006734518
 40
0.6924613006734518
 40
0.6924613006734518
 40
0.6924613006734518
 10
0.0814770849058995
 20
-11.49597874805762
 30
0.0
 10
0.1438716472057075
 20
-11.49598789933388
 30
0.0
 10
0.2060893163473491
 20
-11.49013160342229
 30
0.0
 10
0.4396128259851825
 20
-11.43708608863219
 30
0.0
 10
0.6005941679940433
 20
-11.35377530118416
 30
0.0
 10
0.859171141355884
 20
-11.11484938303351
 30
0.0
 10
0.9549927323871601
 20
-10.96089218274352
 30
0.0
 10
1.029019691162796
 20
-10.72329461185253
 30
0.0
 10
1.04035092634054
 20
-10.65221428573219
 30
0.0
 10
1.044327686071702
 20
-10.58042277902076
 30
0.0
  0
SPLINE
  5
91
330
1F
100
AcDbEntity
  8
0
  6
Continuous
 62
     7
370
    25
100
AcDbSpline
210
0.0
220
0.0
230
1.0
 70
     8
 71
     3
 72
    12
 73
     8
 74
     0
 42
0.000000001
 43
0.00000001
 40
0.1782395368790837
 40
0.1782395368790837
 40
0.1782395368790837
 40
0.1782395368790837
 40
0.5
 40
0.5
 40
0.75
 40
0.75
 40
0.8240742865988836
 40
0.8240742865988836
 40
0.8240742865988836
 40
0.8240742865988836
 10
1.060363026947538
 20
-10.5795602185063
 30
0.0
 10
0.9798064060623822
 20
-10.40646521895541
 30
0.0
 10
0.8576455549323103
 20
-10.25507790607597
 30
0.0
 10
0.5701019534324123
 20
-10.07362335285808
 30
0.0
 10
0.4265619634569112
 20
-10.02360215829704
 30
0.0
 10
0.2350530982341865
 20
-10.00026930528554
 30
0.0
 10
0.1913303062449039
 20
-9.99906655771493
 30
0.0
 10
0.1477105640733473
 20
-10.00094497703436
 30
0.0
  0
SPLINE
  5
92
330
1F
100
AcDbEntity
  8
0
  6
Continuous
 62
     7
370
    25
100
AcDbSpline
210
0.0
220
0.0
230
1.0
 70
     8
 71
     3
 72
    10
 73
     6
 74
     0
 42
0.000000001
 43
0.00000001
 40
0.3233537539793067
 40
0.3233537539793067
 40
0.3233537539793067
 40
0.3233537539793067
 40
0.5
 40
0.5
 40
0.6765974949047429
 40
0.6765974949047429
 40
0.6765974949047429
 40
0.6765974949047429
 10
-3.225699406293714
 20
-9.465128501368898
 30
0.0
 10
-2.684325134419868
 20
-9.64973304623165
 30
0.0
 10
-2.127092158185381
 20
-9.787888073831475
 30
0.0
 10
-0.9970772538110753
 20
-9.966738632287427
 30
0.0
 10
-0.4244014357891242
 20
-10.00778974320795
 30
0.0
 10
0.1476684716179069
 20
-10.0001897623365
 30
0.0
  0
SPLINE
  5
93
330
1F
100
AcDbEntity
  8
0
  6
Continuous
 62
     7
370
    25
100
AcDbSpline
210
0.0
220
0.0
230
1.0
 70
    24
 71
     3
 72
     8
 73
     4
 74
     0
 42
0.000000001
 43
0.00000001
 40
0.0000510829701349
 40
0.0000510829701349
 40
0.0000510829701349
 40
0.0000510829701349
 40
0.9999999134770498
 40
0.9999999134770498
 40
0.9999999134770498
 40
0.9999999134770498
 10
-3.22569923897544
 20
-9.46512858233196
 30
0.0
 10
-2.331190690199445
 20
-7.631114268450991
 30
0.0
 10
-1.43668214142345
 20
-5.797099954570021
 30
0.0
 10
-0.5421735926474562
 20
-3.963085640689051
 30
0.0
  0
SPLINE
  5
94
330
1F
100
AcDbEntity
  8
0
  6
Continuous
 62
     7
370
    25
100
AcDbSpline
210
0.0
220
0.0
230
1.0
 70
     8
 71
     3
 72
    10
 73
     6
 74
     0
 42
0.000000001
 43
0.00000001
 40
0.2514629149276744
 40
0.2514629149276744
 40
0.2514629149276744
 40
0.2514629149276744
 40
0.5
 40
0.5
 40
0.7485341524851868
 40
0.7485341524851868
 40
0.7485341524851868
 40
0.7485341524851868
 10
-0.5421706680789806
 20
-3.963063555577581
 30
0.0
 10
-0.1314250125942211
 20
-4.017997503183674
 30
0.0
 10
0.2867660539898493
 20
-4.011141667977579
 30
0.0
 10
1.102414555237999
 20
-3.86732120462228
 30
0.0
 10
1.497717361018805
 20
-3.730718891941655
 30
0.0
 10
1.864931543683875
 20
-3.538647853384953
 30
0.0
  0
SPLINE
  5
95
330
1F
100
AcDbEntity
  8
0
  6
Continuous
 62
     7
370
    25
100
AcDbSpline
210
0.0
220
0.0
230
1.0
 70
    24
 71
     3
 72
     8
 73
     4
 74
     0
 42
0.000000001
 43
0.00000001
 40
0.0
 40
0.0
 40
0.0
 40
0.0
 40
0.9999999174114349
 40
0.9999999174114349
 40
0.9999999174114349
 40
0.9999999174114349
 10
1.86493164303622
 20
-3.538648042233392
 30
0.0
 10
3.33283954914158
 20
-4.956190229609869
 30
0.0
 10
4.80074745524694
 20
-6.373732416986345
 30
0.0
 10
6.2686553613523
 20
-7.791274604362822
 30
0.0
  0
SPLINE
  5
96
330
1F
100
AcDbEntity
  8
0
  6
Continuous
 62
     7
370
    25
100
AcDbSpline
210
0.0
220
0.0
230
1.0
 70
     8
 71
     3
 72
    10
 73
     6
 74
     0
 42
0.000000001
 43
0.00000001
 40
0.3233496986905809
 40
0.3233496986905809
 40
0.3233496986905809
 40
0.3233496986905809
 40
0.5
 40
0.5
 40
0.6765948962870997
 40
0.6765948962870997
 40
0.6765948962870997
 40
0.6765948962870997
 10
3.281003170273168
 20
-9.4461003735289
 30
0.0
 10
3.821366186094796
 20
-9.258516333480078
 30
0.0
 10
4.345649837697223
 20
-9.024556303685308
 30
0.0
 10
5.346486926103108
 20
-8.470248515487006
 30
0.0
 10
5.823177291503704
 20
-8.150249596110116
 30
0.0
 10
6.269456227921007
 20
-7.792273039245082
 30
0.0
  0
SPLINE
  5
97
330
1F
100
AcDbEntity
  8
0
  6
Continuous
 62
     7
370
    25
100
AcDbSpline
210
0.0
220
0.0
230
1.0
 70
     8
 71
     3
 72
    12
 73
     8
 74
     0
 42
0.000000001
 43
0.00000001
 40
0.1748509252989333
 40
0.1748509252989333
 40
0.1748509252989333
 40
0.1748509252989333
 40
0.5
 40
0.5
 40
0.75
 40
0.75
 40
0.8263978485793376
 40
0.8263978485793376
 40
0.8263978485793376
 40
0.8263978485793376
 10
3.284050862546061
 20
-9.45488137134517
 30
0.0
 10
3.101737874184242
 20
-9.518145735179267
 30
0.0
 10
2.937102753372546
 20
-9.625824031946095
 30
0.0
 10
2.72757862828346
 20
-9.896159193611865
 30
0.0
 10
2.663973176070722
 20
-10.03421785895488
 30
0.0
 10
2.622016187227946
 20
-10.22394217491758
 30
0.0
 10
2.616574062341563
 20
-10.26871890019788
 30
0.0
 10
2.614370086802389
 20
-10.31369688902859
 30
0.0
  0
SPLINE
  5
98
330
1F
100
AcDbEntity
  8
0
  6
Continuous
 62
     7
370
    25
100
AcDbSpline
210
0.0
220
0.0
230
1.0
 70
     8
 71
     3
 72
    14
 73
    10
 74
     0
 42
0.000000001
 43
0.00000001
 40
0.0
 40
0.0
 40
0.0
 40
0.0
 40
0.0997151878143673
 40
0.0997151878143673
 40
0.3497151878143673
 40
0.3497151878143673
 40
0.5997151878143673
 40
0.5997151878143673
 40
0.7132890709339305
 40
0.7132890709339305
 40
0.7132890709339305
 40
0.7132890709339305
 10
2.595168362559584
 20
-10.31715540252294
 30
0.0
 10
2.622419616501674
 20
-10.38116132924132
 30
0.0
 10
2.655952722556611
 20
-10.44216771409133
 30
0.0
 10
2.804643953300757
 20
-10.63899029091461
 30
0.0
 10
2.946764438717095
 20
-10.75149561258968
 30
0.0
 10
3.270862781147292
 20
-10.889001648643
 30
0.0
 10
3.450600012294261
 20
-10.91306665578031
 30
0.0
 10
3.705056234796043
 20
-10.8819738583975
 30
0.0
 10
3.781378102111357
 20
-10.85998962547571
 30
0.0
 10
3.8548384661905
 20
-10.82987862102058
 30
0.0
  0
SPLINE
  5
99
330
1F
100
AcDbEntity
  8
0
  6
Continuous
 62
     7
370
    25
100
AcDbSpline
210
0.0
220
0.0
230
1.0
 70
     8
 71
     3
 72
    14
 73
    10
 74
     0
 42
0.000000001
 43
0.00000001
 40
0.0
 40
0.0
 40
0.0
 40
0.0
 40
0.0458836030436678
 40
0.0458836030436678
 40
0.2958836030436678
 40
0.2958836030436678
 40
0.5458836030436678
 40
0.5458836030436678
 40
0.5946111759940308
 40
0.5946111759940308
 40
0.5946111759940308
 40
0.5946111759940308
 10
3.85687586489066
 20
-10.83520449781043
 30
0.0
 10
4.113691936242618
 20
-10.74299411984059
 30
0.0
 10
4.367251856040027
 20
-10.64122701626789
 30
0.0
 10
5.977450728985289
 20
-9.935316332226018
 30
0.0
 10
7.220479833869446
 20
-9.073078443554367
 30
0.0
 10
9.289023671672677
 20
-6.940461345427218
 30
0.0
 10
10.1150849318998
 20
-5.67166108109716
 30
0.0
 10
10.77601231829665
 20
-4.02508251640629
 30
0.0
 10
10.87467932465211
 20
-3.752401456264524
 30
0.0
 10
10.96301223098226
 20
-3.476417166961838
 30
0.0
  0
SPLINE
  5
9A
330
1F
100
AcDbEntity
  8
0
  6
Continuous
 62
     7
370
    25
100
AcDbSpline
210
0.0
220
0.0
230
1.0
 70
     8
 71
     3
 72
    14
 73
    10
 74
     0
 42
0.000000001
 43
0.00000001
 40
0.0
 40
0.0
 40
0.0
 40
0.0
 40
0.0895049877096883
 40
0.0895049877096883
 40
0.3395049877096883
 40
0.3395049877096883
 40
0.5895049877096883
 40
0.5895049877096883
 40
0.6924613458145715
 40
0.6924613458145715
 40
0.6924613458145715
 40
0.6924613458145715
 10
10.95850330341887
 20
-3.474963487594505
 30
0.0
 10
10.97779298690701
 20
-3.415625560437777
 30
0.0
 10
10.9914496356341
 20
-3.354643345811157
 30
0.0
 10
11.01316308619692
 20
-3.116157324716479
 30
0.0
 10
10.98367578937481
 20
-2.937310521260812
 30
0.0
 10
10.83634841712868
 20
-2.617557036675967
 30
0.0
 10
10.71953691861904
 20
-2.478849896827907
 30
0.0
 10
10.51644376289636
 20
-2.335024369680831
 30
0.0
 10
10.45234386956179
 20
-2.302282685573811
 30
0.0
 10
10.38529494364516
 20
-2.276315761247733
 30
0.0
  0
SPLINE
  5
9B
330
1F
100
AcDbEntity
  8
0
  6
Continuous
 62
     7
370
    25
100
AcDbSpline
210
0.0
220
0.0
230
1.0
 70
     8
 71
     3
 72
    12
 73
     8
 74
     0
 42
0.000000001
 43
0.00000001
 40
0.1782395748497282
 40
0.1782395748497282
 40
0.1782395748497282
 40
0.1782395748497282
 40
0.5
 40
0.5
 40
0.75
 40
0.75
 40
0.8240742865988774
 40
0.8240742865988774
 40
0.8240742865988774
 40
0.8240742865988774
 10
10.38942981378707
 20
-2.260798742301383
 30
0.0
 10
10.19991334586612
 20
-2.283923353215446
 30
0.0
 10
10.01818570195069
 20
-2.353323972363943
 30
0.0
 10
9.756756324575685
 20
-2.570721633200966
 30
0.0
 10
9.664827045260697
 20
-2.69177887681781
 30
0.0
 10
9.583456689433076
 20
-2.866704382908364
 30
0.0
 10
9.568801722752381
 20
-2.907915559701124
 30
0.0
 10
9.557108964065199
 20
-2.949980863224761
 30
0.0
  0
SPLINE
  5
9C
330
1F
100
AcDbEntity
  8
0
  6
Continuous
 62
     7
370
    25
100
AcDbSpline
210
0.0
220
0.0
230
1.0
 70
     8
 71
     3
 72
    10
 73
     6
 74
     0
 42
0.000000001
 43
0.00000001
 40
0.3233537539793062
 40
0.3233537539793062
 40
0.3233537539793062
 40
0.3233537539793062
 40
0.5
 40
0.5
 40
0.6765974949047437
 40
0.6765974949047437
 40
0.6765974949047437
 40
0.6765974949047437
 10
8.005076203507953
 20
-5.992708000830689
 30
0.0
 10
8.347939409163756
 20
-5.534876413411966
 30
0.0
 10
8.651527107904087
 20
-5.0476086116563
 30
0.0
 10
9.170817906315298
 20
-4.028168435356804
 30
0.0
 10
9.386826392893774
 20
-3.49620685781478
 30
0.0
 10
9.55637770492154
 20
-2.949787521352754
 30
0.0
  0
SPLINE
  5
9D
330
1F
100
AcDbEntity
  8
0
  6
Continuous
 62
     7
370
    25
100
AcDbSpline
210
0.0
220
0.0
230
1.0
 70
    24
 71
     3
 72
     8
 73
     4
 74
     0
 42
0.000000001
 43
0.00000001
 40
0.0000510829701344
 40
0.0000510829701344
 40
0.0000510829701344
 40
0.0000510829701344
 40
0.9999999134770498
 40
0.9999999134770498
 40
0.9999999134770498
 40
0.9999999134770498
 10
8.005076332212594
 20
-5.992707866720514
 30
0.0
 10
6.537243411202962
 20
-4.575238091609259
 30
0.0
 10
5.06941049019333
 20
-3.157768316498003
 30
0.0
 10
3.601577569183698
 20
-1.740298541386748
 30
0.0
  0
SPLINE
  5
9E
330
1F
100
AcDbEntity
  8
0
  6
Continuous
 62
     7
370
    25
100
AcDbSpline
210
0.0
220
0.0
230
1.0
 70
     8
 71
     3
 72
    10
 73
     6
 74
     0
 42
0.000000001
 43
0.00000001
 40
0.2514629149276743
 40
0.2514629149276743
 40
0.2514629149276743
 40
0.2514629149276743
 40
0.5
 40
0.5
 40
0.7485341524851866
 40
0.7485341524851866
 40
0.7485341524851866
 40
0.7485341524851866
 10
3.601557468735882
 20
-1.740288935282075
 30
0.0
 10
3.780730145482937
 20
-1.366622126471755
 30
0.0
 10
3.9034380052058
 20
-0.966780217951237
 30
0.0
 10
4.018705864677284
 20
-0.1466094285171426
 30
0.0
 10
4.010944629971758
 20
0.2715583169196835
 30
0.0
 10
3.941749640179839
 20
0.6801529732605623
 30
0.0
  0
SPLINE
  5
9F
330
1F
100
AcDbEntity
  8
0
  6
Continuous
 62
     7
370
    25
100
AcDbSpline
210
0.0
220
0.0
230
1.0
 70
    24
 71
     3
 72
     8
 73
     4
 74
     0
 42
0.000000001
 43
0.00000001
 40
0.0
 40
0.0
 40
0.0
 40
0.0
 40
0.9999999174114349
 40
0.9999999174114349
 40
0.9999999174114349
 40
0.9999999174114349
 10
3.941749850486942
 20
0.6801530093928805
 30
0.0
 10
5.743521074078525
 20
1.638171762672795
 30
0.0
 10
7.545292297670108
 20
2.596190515952709
 30
0.0
 10
9.347063521261688
 20
3.554209269232623
 30
0.0
  0
SPLINE
  5
A0
330
1F
100
AcDbEntity
  8
0
  6
Continuous
 62
     7
370
    25
100
AcDbSpline
210
0.0
220
0.0
230
1.0
 70
     8
 71
     3
 72
    10
 73
     6
 74
     0
 42
0.000000001
 43
0.00000001
 40
0.3233496986905747
 40
0.3233496986905747
 40
0.3233496986905747
 40
0.3233496986905747
 40
0.5
 40
0.5
 40
0.6765948962870996
 40
0.6765948962870996
 40
0.6765948962870996
 40
0.6765948962870996
 10
9.997661052035232
 20
0.2014138990813504
 30
0.0
 10
9.98623938341441
 20
0.7732963226920275
 30
0.0
 10
9.925742730743588
 20
1.344217331146605
 30
0.0
 10
9.707840365662602
 20
2.467360492492578
 30
0.0
 10
9.55080873214539
 20
3.019605075031011
 30
0.0
 10
9.34826057064252
 20
3.554662405255082
 30
0.0
  0
SPLINE
  5
A1
330
1F
100
AcDbEntity
  8
0
  6
Continuous
 62
     7
370
    25
100
AcDbSpline
210
0.0
220
0.0
230
1.0
 70
     8
 71
     3
 72
    12
 73
     8
 74
     0
 42
0.000000001
 43
0.00000001
 40
0.1748509252989678
 40
0.1748509252989678
 40
0.1748509252989678
 40
0.1748509252989678
 40
0.5
 40
0.5
 40
0.75
 40
0.75
 40
0.8263978485793362
 40
0.8263978485793362
 40
0.8263978485793362
 40
0.8263978485793362
 10
10.00695406593392
 20
0.20159894912435
 30
0.0
 10
10.01078423970853
 20
0.0086592299745658
 30
0.0
 10
10.0623173353104
 20
-0.1811924981107121
 30
0.0
 10
10.25467483701226
 20
-0.4639999417295352
 30
0.0
 10
10.3663212646491
 20
-0.5671547953400699
 30
0.0
 10
10.53379438905985
 20
-0.6656863008617542
 30
0.0
 10
10.57469787634063
 20
-0.6846988382615109
 30
0.0
 10
10.61679341981114
 20
-0.7006939064812944
 30
0.0
  0
SPLINE
  5
A2
330
1F
100
AcDbEntity
  8
0
  6
Continuous
 62
     7
370
    25
100
AcDbSpline
210
0.0
220
0.0
230
1.0
 70
     8
 71
     3
 72
    14
 73
    10
 74
     0
 42
0.000000001
 43
0.00000001
 40
0.0
 40
0.0
 40
0.0
 40
0.0
 40
0.0997151878143665
 40
0.0997151878143665
 40
0.3497151878143665
 40
0.3497151878143665
 40
0.5997151878143665
 40
0.5997151878143665
 40
0.7132890709339195
 40
0.7132890709339195
 40
0.7132890709339195
 40
0.7132890709339195
 10
10.61414900249431
 20
-0.7200245708915457
 30
0.0
 10
10.68344335676747
 20
-0.713886007349406
 30
0.0
 10
10.75182617625983
 20
-0.7008461380082714
 30
0.0
 10
10.98496368771609
 20
-0.6202538952081694
 30
0.0
 10
11.1358802522555
 20
-0.5198553378091444
 30
0.0
 10
11.36680815953361
 20
-0.2541111992900575
 30
0.0
 10
11.44523720033255
 20
-0.0906074305620662
 30
0.0
 10
11.4942974898493
 20
0.1610030207540389
 30
0.0
 10
11.49697399591614
 20
0.2403829315812067
 30
0.0
 10
11.49103722983032
 20
0.3195527016224202
 30
0.0
  0
SPLINE
  5
A3
330
1F
100
AcDbEntity
  8
0
  6
Continuous
 62
     7
370
    25
100
AcDbSpline
210
0.0
220
0.0
230
1.0
 70
     8
 71
     3
 72
    14
 73
    10
 74
     0
 42
0.000000001
 43
0.00000001
 40
0.0
 40
0.0
 40
0.0
 40
0.0
 40
0.0458836030436675
 40
0.0458836030436675
 40
0.2958836030436675
 40
0.2958836030436675
 40
0.5458836030436675
 40
0.5458836030436675
 40
0.5946111759940276
 40
0.5946111759940276
 40
0.5946111759940276
 40
0.5946111759940276
 10
11.49673203047895
 20
0.3198445964944899
 30
0.0
 10
11.48839528011706
 20
0.5925857684935046
 30
0.0
 10
11.46996333742952
 20
0.8651833469603797
 30
0.0
 10
11.2961811975126
 20
2.614711875485849
 30
0.0
 10
10.86026135280674
 20
4.063348966423963
 30
0.0
 10
9.47123716436124
 20
6.689665988424752
 30
0.0
 10
8.519803372898117
 20
7.86737777696816
 30
0.0
 10
7.158051893801423
 20
9.004777833661796
 30
0.0
 10
6.929206576431279
 20
9.182878814627456
 30
0.0
 10
6.694026288913439
 20
9.35217223637105
 30
0.0
  0
SPLINE
  5
A4
330
1F
100
AcDbEntity
  8
0
  6
Continuous
 62
     7
370
    25
100
AcDbSpline
210
0.0
220
0.0
230
1.0
 70
     8
 71
     3
 72
    14
 73
    10
 74
     0
 42
0.000000001
 43
0.00000001
 40
0.0
 40
0.0
 40
0.0
 40
0.0
 40
0.0895049877096956
 40
0.0895049877096956
 40
0.3395049877096956
 40
0.3395049877096956
 40
0.5895049877096956
 40
0.5895049877096956
 40
0.6924613006734536
 40
0.6924613006734536
 40
0.6924613006734536
 40
0.6924613006734536
 10
6.691250422435037
 20
9.34833320305926
 30
0.0
 10
6.640777540163132
 20
9.385015210140345
 30
0.0
 10
6.58700014410725
 20
9.416847995577248
 30
0.0
 10
6.366896284930282
 20
9.511194947665388
 30
0.0
 10
6.187690791249002
 20
9.538417563532242
 30
0.0
 10
5.83806049436585
 20
9.497110166876247
 30
0.0
 10
5.670045426978803
 20
9.428878693494639
 30
0.0
 10
5.470500011137176
 20
9.280170175462
 30
0.0
 10
5.419552881889445
 20
9.229325316592664
 30
0.0
 10
5.374137626799555
 20
9.173582248333224
 30
0.0
  0
SPLINE
  5
A5
330
1F
100
AcDbEntity
  8
0
  6
Continuous
 62
     7
370
    25
100
AcDbSpline
210
0.0
220
0.0
230
1.0
 70
     8
 71
     3
 72
    12
 73
     8
 74
     0
 42
0.000000001
 43
0.00000001
 40
0.1782395368790848
 40
0.1782395368790848
 40
0.1782395368790848
 40
0.1782395368790848
 40
0.5
 40
0.5
 40
0.75
 40
0.75
 40
0.8240742865988718
 40
0.8240742865988718
 40
0.8240742865988718
 40
0.8240742865988718
 10
5.360657763170805
 20
9.182309759100653
 30
0.0
 10
5.324086750494732
 20
8.99492296909185
 30
0.0
 10
5.333933725211541
 20
8.800643713537863
 30
0.0
 10
5.45990507510593
 20
8.484830007925185
 30
0.0
 10
5.546629645903491
 20
8.359991322224555
 30
0.0
 10
5.687848865548061
 20
8.228548560949815
 30
0.0
 10
5.722514390024671
 20
8.201875905404899
 30
0.0
 10
5.758907609905291
 20
8.177756537399645
 30
0.0
  0
MTEXT
  5
A7
330
1F
100
AcDbEntity
  8
0
  6
Continuous
 62
     7
100
AcDbMText
 10
-11.496262054
 20
-12.5202825963
 30
0.0
 40
4.83362
 41
0.0
 71
     1
 72
     1
  1
SOLIDWORKS Educational Product.
  7
SLDTEXTSTYLE0
 73
     1
 44
1.0
  0
MTEXT
  5
A8
330
1F
100
AcDbEntity
  8
0
  6
Continuous
 62
     7
100
AcDbMText
 10
-11.496262054
 20
-19.7707125963
 30
0.0
 40
4.83362
 41
0.0
 71
     1
 72
     1
  1
For Instructional Use Only.
  7
SLDTEXTSTYLE0
 73
     1
 44
1.0
  0
ENDSEC
  0
SECTION
  2
OBJECTS
  0
DICTIONARY
  5
C
330
0
100
AcDbDictionary
281
     1
  3
ACAD_GROUP
350
D
  3
ACAD_LAYOUT
350
1A
  3
ACAD_MLINESTYLE
350
17
  3
ACAD_PLOTSETTINGS
350
19
  3
ACAD_PLOTSTYLENAME
350
E
  3
ACAD_SCALELIST
350
47
  0
DICTIONARY
  5
D
102
{ACAD_REACTORS
330
C
102
}
330
C
100
AcDbDictionary
281
     1
  0
DICTIONARY
  5
1A
102
{ACAD_REACTORS
330
C
102
}
330
C
100
AcDbDictionary
281
     1
  3
Layout1
350
1E
  3
Layout2
350
26
  3
Model
350
22
  0
DICTIONARY
  5
17
102
{ACAD_REACTORS
330
C
102
}
330
C
100
AcDbDictionary
281
     1
  3
Standard
350
18
  0
DICTIONARY
  5
19
102
{ACAD_REACTORS
330
C
102
}
330
C
100
AcDbDictionary
281
     1
  0
ACDBDICTIONARYWDFLT
  5
E
102
{ACAD_REACTORS
330
C
102
}
330
C
100
AcDbDictionary
281
     1
  3
Normal
350
F
100
AcDbDictionaryWithDefault
340
F
  0
DICTIONARY
  5
47
102
{ACAD_REACTORS
330
C
102
}
330
C
100
AcDbDictionary
281
     1
  3
A0
350
48
  3
A1
350
49
  3
A2
350
4A
  3
A3
350
4B
  3
A4
350
4C
  3
A5
350
4D
  3
A6
350
4E
  3
A7
350
4F
  3
A8
350
50
  3
A9
350
51
  3
B0
350
52
  3
B1
350
53
  3
B2
350
54
  3
B3
350
55
  3
B4
350
56
  3
B5
350
57
  3
B6
350
58
  3
B7
350
59
  3
B8
350
5A
  3
B9
350
5B
  3
C0
350
5C
  3
C1
350
5D
  3
C2
350
5E
  3
C3
350
5F
  3
C4
350
60
  3
C5
350
61
  3
C6
350
62
  3
C7
350
63
  3
C8
350
64
  3
C9
350
65
  3
D0
350
66
  3
D1
350
67
  3
D2
350
68
  0
LAYOUT
  5
1E
102
{ACAD_REACTORS
330
1A
102
}
330
1A
100
AcDbPlotSettings
  1

  2
none_device
  4

  6

 40
0.0
 41
0.0
 42
0.0
 43
0.0
 44
0.0
 45
0.0
 46
0.0
 47
0.0
 48
0.0
 49
0.0
140
0.0
141
0.0
142
1.0
143
1.0
 70
   688
 72
     1
 73
     0
 74
     5
  7

 75
    16
147
1.0
148
0.0
149
0.0
100
AcDbLayout
  1
Layout1
 70
     1
 71
     1
 10
0.0
 20
0.0
 11
420.0
 21
297.0
 12
0.0
 22
0.0
 32
0.0
 14
1.0000000000E+20
 24
1.0000000000E+20
 34
1.0000000000E+20
 15
-1.0000000000E+20
 25
-1.0000000000E+20
 35
-1.0000000000E+20
146
0.0
 13
0.0
 23
0.0
 33
0.0
 16
1.0
 26
0.0
 36
0.0
 17
0.0
 27
1.0
 37
0.0
 76
     0
330
1B
  0
LAYOUT
  5
26
102
{ACAD_REACTORS
330
1A
102
}
330
1A
100
AcDbPlotSettings
  1

  2
none_device
  4

  6

 40
0.0
 41
0.0
 42
0.0
 43
0.0
 44
0.0
 45
0.0
 46
0.0
 47
0.0
 48
0.0
 49
0.0
140
0.0
141
0.0
142
1.0
143
1.0
 70
   688
 72
     1
 73
     0
 74
     5
  7

 75
    16
147
1.0
148
0.0
149
0.0
100
AcDbLayout
  1
Layout2
 70
     1
 71
     2
 10
0.0
 20
0.0
 11
0.0
 21
0.0
 12
0.0
 22
0.0
 32
0.0
 14
0.0
 24
0.0
 34
0.0
 15
0.0
 25
0.0
 35
0.0
146
0.0
 13
0.0
 23
0.0
 33
0.0
 16
1.0
 26
0.0
 36
0.0
 17
0.0
 27
1.0
 37
0.0
 76
     0
330
23
  0
LAYOUT
  5
22
102
{ACAD_REACTORS
330
1A
102
}
330
1A
100
AcDbPlotSettings
  1

  2
none_device
  4
ANSI_A_(11.00_x_8.50_Inches)
  6

 40
6.35
 41
19.05
 42
6.35000508
 43
19.05000254
 44
279.4
 45
215.9
 46
133.3478136711
 47
88.9077676439
 48
0.0
 49
0.0
140
0.0
141
0.0
142
0.3658733759
143
1.0
 70
  1696
 72
     0
 73
     0
 74
     0
  7

 75
     0
147
0.0179189148
148
-1300.4909072572
149
0.0
100
AcDbLayout
  1
Model
 70
     1
 71
     0
 10
0.0
 20
0.0
 11
420.0
 21
297.0
 12
0.0
 22
0.0
 32
0.0
 14
-11.496262054
 24
-11.5007162046
 34
0.0
 15
11.4967320305
 25
11.499044245
 35
0.0
146
0.0
 13
0.0
 23
0.0
 33
0.0
 16
1.0
 26
0.0
 36
0.0
 17
0.0
 27
1.0
 37
0.0
 76
     0
330
1F
331
29
  0
MLINESTYLE
  5
18
102
{ACAD_REACTORS
330
17
102
}
330
17
100
AcDbMlineStyle
  2
Standard
 70
     0
  3

 62
   256
 51
90.0
 52
90.0
 71
     2
 49
0.5
 62
   256
  6
BYLAYER
 49
-0.5
 62
   256
  6
BYLAYER
  0
ACDBPLACEHOLDER
  5
F
102
{ACAD_REACTORS
330
E
102
}
330
E
  0
SCALE
  5
48
102
{ACAD_REACTORS
330
47
102
}
330
47
100
AcDbScale
 70
     0
300
1:1
140
1.0
141
1.0
290
     1
  0
SCALE
  5
49
102
{ACAD_REACTORS
330
47
102
}
330
47
100
AcDbScale
 70
     0
300
1:2
140
1.0
141
2.0
290
     0
  0
SCALE
  5
4A
102
{ACAD_REACTORS
330
47
102
}
330
47
100
AcDbScale
 70
     0
300
1:4
140
1.0
141
4.0
290
     0
  0
SCALE
  5
4B
102
{ACAD_REACTORS
330
47
102
}
330
47
100
AcDbScale
 70
     0
300
1:5
140
1.0
141
5.0
290
     0
  0
SCALE
  5
4C
102
{ACAD_REACTORS
330
47
102
}
330
47
100
AcDbScale
 70
     0
300
1:8
140
1.0
141
8.0
290
     0
  0
SCALE
  5
4D
102
{ACAD_REACTORS
330
47
102
}
330
47
100
AcDbScale
 70
     0
300
1:10
140
1.0
141
10.0
290
     0
  0
SCALE
  5
4E
102
{ACAD_REACTORS
330
47
102
}
330
47
100
AcDbScale
 70
     0
300
1:16
140
1.0
141
16.0
290
     0
  0
SCALE
  5
4F
102
{ACAD_REACTORS
330
47
102
}
330
47
100
AcDbScale
 70
     0
300
1:20
140
1.0
141
20.0
290
     0
  0
SCALE
  5
50
102
{ACAD_REACTORS
330
47
102
}
330
47
100
AcDbScale
 70
     0
300
1:30
140
1.0
141
30.0
290
     0
  0
SCALE
  5
51
102
{ACAD_REACTORS
330
47
102
}
330
47
100
AcDbScale
 70
     0
300
1:40
140
1.0
141
40.0
290
     0
  0
SCALE
  5
52
102
{ACAD_REACTORS
330
47
102
}
330
47
100
AcDbScale
 70
     0
300
1:50
140
1.0
141
50.0
290
     0
  0
SCALE
  5
53
102
{ACAD_REACTORS
330
47
102
}
330
47
100
AcDbScale
 70
     0
300
1:100
140
1.0
141
100.0
290
     0
  0
SCALE
  5
54
102
{ACAD_REACTORS
330
47
102
}
330
47
100
AcDbScale
 70
     0
300
2:1
140
2.0
141
1.0
290
     0
  0
SCALE
  5
55
102
{ACAD_REACTORS
330
47
102
}
330
47
100
AcDbScale
 70
     0
300
4:1
140
4.0
141
1.0
290
     0
  0
SCALE
  5
56
102
{ACAD_REACTORS
330
47
102
}
330
47
100
AcDbScale
 70
     0
300
8:1
140
8.0
141
1.0
290
     0
  0
SCALE
  5
57
102
{ACAD_REACTORS
330
47
102
}
330
47
100
AcDbScale
 70
     0
300
10:1
140
10.0
141
1.0
290
     0
  0
SCALE
  5
58
102
{ACAD_REACTORS
330
47
102
}
330
47
100
AcDbScale
 70
     0
300
100:1
140
100.0
141
1.0
290
     0
  0
SCALE
  5
59
102
{ACAD_REACTORS
330
47
102
}
330
47
100
AcDbScale
 70
     0
300
1/128" = 1'-0"
140
0.0078125
141
12.0
290
     0
  0
SCALE
  5
5A
102
{ACAD_REACTORS
330
47
102
}
330
47
100
AcDbScale
 70
     0
300
1/64" = 1'-0"
140
0.015625
141
12.0
290
     0
  0
SCALE
  5
5B
102
{ACAD_REACTORS
330
47
102
}
330
47
100
AcDbScale
 70
     0
300
1/32" = 1'-0"
140
0.03125
141
12.0
290
     0
  0
SCALE
  5
5C
102
{ACAD_REACTORS
330
47
102
}
330
47
100
AcDbScale
 70
     0
300
1/16" = 1'-0"
140
0.0625
141
12.0
290
     0
  0
SCALE
  5
5D
102
{ACAD_REACTORS
330
47
102
}
330
47
100
AcDbScale
 70
     0
300
3/32" = 1'-0"
140
0.09375
141
12.0
290
     0
  0
SCALE
  5
5E
102
{ACAD_REACTORS
330
47
102
}
330
47
100
AcDbScale
 70
     0
300
1/8" = 1'-0"
140
0.125
141
12.0
290
     0
  0
SCALE
  5
5F
102
{ACAD_REACTORS
330
47
102
}
330
47
100
AcDbScale
 70
     0
300
3/16" = 1'-0"
140
0.1875
141
12.0
290
     0
  0
SCALE
  5
60
102
{ACAD_REACTORS
330
47
102
}
330
47
100
AcDbScale
 70
     0
300
1/4" = 1'-0"
140
0.25
141
12.0
290
     0
  0
SCALE
  5
61
102
{ACAD_REACTORS
330
47
102
}
330
47
100
AcDbScale
 70
     0
300
3/8" = 1'-0"
140
0.375
141
12.0
290
     0
  0
SCALE
  5
62
102
{ACAD_REACTORS
330
47
102
}
330
47
100
AcDbScale
 70
     0
300
1/2" = 1'-0"
140
0.5
141
12.0
290
     0
  0
SCALE
  5
63
102
{ACAD_REACTORS
330
47
102
}
330
47
100
AcDbScale
 70
     0
300
3/4" = 1'-0"
140
0.75
141
12.0
290
     0
  0
SCALE
  5
64
102
{ACAD_REACTORS
330
47
102
}
330
47
100
AcDbScale
 70
     0
300
1" = 1'-0"
140
1.0
141
12.0
290
     0
  0
SCALE
  5
65
102
{ACAD_REACTORS
330
47
102
}
330
47
100
AcDbScale
 70
     0
300
1-1/2" = 1'-0"
140
1.5
141
12.0
290
     0
  0
SCALE
  5
66
102
{ACAD_REACTORS
330
47
102
}
330
47
100
AcDbScale
 70
     0
300
3" = 1'-0"
140
3.0
141
12.0
290
     0
  0
SCALE
  5
67
102
{ACAD_REACTORS
330
47
102
}
330
47
100
AcDbScale
 70
     0
300
6" = 1'-0"
140
6.0
141
12.0
290
     0
  0
SCALE
  5
68
102
{ACAD_REACTORS
330
47
102
}
330
47
100
AcDbScale
 70
     0
300
1'-0" = 1'-0"
140
12.0
141
12.0
290
     0
  0
ENDSEC
  0
EOF
